<?xml version="1.0" encoding="UTF-8"?>
<svg width="100px" height="134px" viewBox="0 0 100 134" version="1.1" xmlns="http://www.w3.org/2000/svg" xmlns:xlink="http://www.w3.org/1999/xlink">
    <!-- Generator: Sketch 59.1 (86144) - https://sketch.com -->
    <title>Group 20</title>
    <desc>Created with Sketch.</desc>
    <g id="Our-Story-Page" stroke="none" stroke-width="1" fill="none" fill-rule="evenodd">
        <g transform="translate(-748.000000, -843.000000)" id="Group-20">
            <g transform="translate(748.000000, 843.000000)">
                <g id="Group-19" transform="translate(0.000000, 87.000000)">
                    <path d="M28.6765717,8.64076823 L35.8379386,7.16666667 C35.8379386,7.16666667 38.7466803,6.90152227 40.4946574,6.90152227 L40.4946574,2 C40.4946574,2 49.9646272,7.11707471 59.7537636,2.15811317 L59.7537636,6.58529594 C59.7537636,6.58529594 60.1567352,4.10568645 64.4095519,7.16666667 L75.8030118,8.7988814 C75.8030118,8.7988814 100,12.0334802 100,46 L1.1739881,46 C1.1739881,46 -2.92573651,11.7374177 28.6765717,8.64076823 Z" id="body-bg" fill="#FEBA40"></path>
                    <path d="M1.86857425,47 L0,47 L0.466425392,38.2213371 C1.37712948,21.0808991 13.6350638,8 27.6625791,8 L35.4927379,7.57777627 L33.803949,9.20885005 L28.5141594,9.75101893 C14.9945213,9.75101893 3.18038995,22.3421051 2.30265278,38.8407193 L1.97866737,44.9306142 L97.9625397,44.9306142 L97.7830407,38.8407193 C96.9053035,22.3421051 85.0911721,9.75101893 71.5715235,9.75101893 L67.8537704,9.20885005 L65.9942078,7.57777627 L72.3374212,8 C86.3649362,8 98.6228709,21.0808991 99.5335746,38.2213371 L100,47 L98.2171189,47 L1.86857425,47 Z M59.900007,9 L59,9 L59,8 L60,8 C59.9402176,8.25989804 59.9017944,8.58747895 59.900007,9 L59.900007,9 Z M40,8 L41,8 L41,9 L40.1357258,9 C40.1228067,8.57532617 40.0713205,8.24944235 40,8 L40,8 Z" id="Rounded-Rectangle-13-copy-4" fill="#3B434F"></path>
                    <path d="M56.4999925,34 C57.328424,34 58,34.6715644 58,35.4999997 C58,36.32842 57.328424,37 56.4999925,37 C55.6715765,37 55,36.32842 55,35.4999997 C55,34.6715644 55.6715765,34 56.4999925,34 L56.4999925,34 Z" id="Ellipse-5" stroke="#403F3F" fill="#FFFFFF"></path>
                    <path d="M56.4999925,40 C57.328424,40 58,40.6715799 58,41.5 C58,42.3284357 57.328424,43 56.4999925,43 C55.6715765,43 55,42.3284357 55,41.5 C55,40.6715799 55.6715765,40 56.4999925,40 L56.4999925,40 Z" id="Ellipse-5-copy" stroke="#403F3F" fill="#FFFFFF"></path>
                    <path d="M40,18.1668937 C40,18.1668937 37.4484956,6.77225266 38.4412035,6.09588354 C39.4339114,5.41951442 50.8982673,9.82672856 62,5.0777805 C62,3.72504226 62,16.6366912 62,17.764591 C50.3318228,34.3598291 40,18.1668937 40,18.1668937 Z" id="body-bg-flat-copy" fill="#FDDEC1"></path>
                    <path d="M61.8867882,32.8654018 C59.2943535,24.6007243 51.7963428,27.6761204 51.7963428,27.6761204 L51.7963428,42.8475031 C51.7963428,43.4840111 51.2107165,44 50.4883237,44 C49.7659308,44 49.1803046,43.4840111 49.1803046,42.8475031 L49.1803046,27.6755434 C49.1196397,27.6507989 41.6812913,24.6344451 39.1022353,32.8654018 L29.5827271,18.2585613 C29.5827271,18.2585613 25.900381,8.62925866 37.0490086,4.42050062 L37.0490086,0 L39.1571397,0 L39.1571397,13.9118123 C39.4277865,16.3065732 41.0308572,23.1300831 50.4883237,25.3697794 C59.956068,23.1300831 61.5608897,16.3065732 61.8318303,13.9118123 L61.8318303,0 L63.9422467,0 L63.9422467,4.42050062 C75.1029832,8.62925866 71.4166413,18.2585613 71.4166413,18.2585613 L61.8867882,32.8654018 Z M38.5734972,17.0455242 C38.5734972,17.0455242 37.8868634,14.797535 37.8868634,13.8124434 L37.8868634,9.25654633 C37.7315722,7.20179067 37.3397065,7.16666667 37.3397065,7.16666667 C29.2115794,11.1049769 32.7800055,17.2251397 32.7800055,17.2251397 L39.5283615,27.6428571 C42.1636416,23.2502081 42.8876897,23.9806735 44.2721456,23.9806735 C41.7678795,22.7250856 40.8533475,20.8462933 39.7851524,18.9724122 C39.2886401,18.4192796 38.5734972,17.0455242 38.5734972,17.0455242 Z M63.113136,9.25654633 L63.113136,13.8124434 C63.113136,14.797535 62.4265044,17.0455242 62.4265044,17.0455242 C62.4265044,17.0455242 61.7113553,18.4192796 61.2148472,18.9724122 C60.1466509,20.8462933 58.5042604,23.3158407 56,24.5714286 C56.692074,25.0923118 58.8363572,23.2502081 61.4716462,27.6428571 L68.2199936,17.2251397 C68.2199936,17.2251397 71.7884202,11.1049769 63.6602995,7.16666667 C63.6602995,7.16666667 63.2684284,7.20179067 63.113136,9.25654633 Z" id="Shape-2-copy-9" fill="#3B434F"></path>
                </g>
                <g id="Group-18" transform="translate(10.000000, 0.000000)">
                    <path d="M39.5975471,6.76541099 C56.811995,6.76541099 70.3993709,22.8164163 69.9575721,42.1020884 L69.4880105,62.5993482 C69.0717966,80.7683656 55.6940121,95.1300547 39.5975471,95.1300547 C23.5010818,95.1300547 10.1232973,80.7683656 9.70708378,62.5993482 L9.23752216,42.1020884 C8.79573308,22.8164163 22.3830992,6.76541099 39.5975471,6.76541099 L39.5975471,6.76541099 Z" id="2-copy-7" fill="#FDDEC1"></path>
                    <path d="M71.3407012,41.4665986 L70.848682,62.7965522 C70.4125644,81.7036856 56.3948312,96.6488206 39.5283827,96.6488206 C22.6619241,96.6488206 8.64420097,81.7036856 8.20807329,62.7965522 L7.71604443,41.4665986 C7.253124,21.3974426 21.490465,4.69436671 39.5283827,4.69436671 C57.5663004,4.69436671 71.8036313,21.3974426 71.3407012,41.4665986 L71.3407012,41.4665986 Z M39.4592679,6.90348085 C22.4801549,6.90348085 9.07853708,22.8290866 9.51427848,41.9640878 L9.97742659,62.3012159 C10.3879489,80.3282828 23.5828557,94.5777763 39.4592679,94.5777763 C55.3356798,94.5777763 68.5305765,80.3282828 68.9410991,62.3012159 L69.4042372,41.9640878 C69.8399984,22.8290866 56.4383805,6.90348085 39.4592679,6.90348085 L39.4592679,6.90348085 Z" id="2-line-copy" fill="#3B434F"></path>
                    <path d="M69.093334,67.6541811 C69.093334,67.6541811 62.9473148,93.7917346 39.203603,96.8865737 L39.203603,96.9249599 C39.156936,96.9192714 39.1117534,96.9116376 39.0652249,96.9057717 C39.0186963,96.9116376 38.9735137,96.9192714 38.9268464,96.9249599 L38.9268464,96.8865737 C15.1831446,93.7917346 9.03711567,67.6541811 9.03711567,67.6541811 L7.65333308,45.0107344 C13.8147726,72.2989336 19.0003592,74.0053935 19.0003592,74.0053935 C17.9509868,65.7305487 26.4727946,66.5496242 26.4727946,66.5496242 C31.6665662,67.4249904 35.8011668,67.847998 39.0652249,68.0061447 C42.3292926,67.847998 46.4638832,67.4249904 51.6576551,66.5496242 C51.6576551,66.5496242 60.1794529,65.7305487 59.1300902,74.0053935 C59.1300902,74.0053935 64.3156768,72.2989336 70.4771163,45.0107344 L69.093334,67.6541811 Z M51.7455062,72.3572485 C46.5158951,73.892615 42.4107597,74.7455635 39.203603,75.1790593 L39.203603,75.1472403 C36.0189039,74.7172801 31.9425211,73.8713334 26.7495509,72.3485481 C26.7495509,72.3485481 23.8284645,71.9391884 23.428463,76.7667858 C23.428463,76.7667858 22.2554896,81.6035379 26.1960379,83.6702667 L31.1776547,88.9169222 C31.1776547,88.9169222 34.5819814,89.9934326 34.4987426,85.8793805 C34.4987426,85.8793805 34.1522478,82.8111064 36.1592815,82.2895707 L39.203603,82.2895707 L39.203603,82.3804252 L42.2694023,82.3804252 C44.2905895,82.9062768 43.94166,85.9999112 43.94166,85.9999112 C43.8578273,90.1479647 47.2861557,89.0625465 47.2861557,89.0625465 L52.3029188,83.7725375 C56.2712598,81.6887243 55.0900116,76.8119961 55.0900116,76.8119961 C54.6871894,71.9445113 51.7455062,72.3572485 51.7455062,72.3572485 Z" id="1-copy-5" fill="#3B434F" opacity="0.158824"></path>
                    <path d="M54.472788,74.9996805 C51.9575818,77.1787528 46.2764724,79.252029 39.6663156,79.252029 C33.0561486,79.252029 27.3750392,77.1787528 24.8598233,74.9996805 C24.8598233,74.9996805 24.6024859,74.2931661 24.9800494,73.9164447 C25.3646004,73.5327513 25.9668493,73.6162585 25.9668493,73.6162585 C28.4794226,75.7968126 33.0536248,77.5952037 39.6663156,77.5952037 C46.2789963,77.5952037 50.8531985,75.7968126 53.3657718,73.6162585 C53.3657718,73.6162585 53.9803729,73.3884599 54.2789335,73.686355 C54.8539738,74.2601128 54.472788,74.9996805 54.472788,74.9996805 L54.472788,74.9996805 Z" id="usta-copy" fill="#3B434F"></path>
                    <path d="M35.0998236,82.5657098 L43.9560412,82.5657098 L43.9560412,83.9464061 L35.0998236,83.9464061 L35.0998236,82.5657098 L35.0998236,82.5657098 Z" id="--copy" fill="#3B434F"></path>
                    <path d="M7.68162032,44.5770511 C7.6778001,44.5772683 7.34185589,44.3095826 6.70747946,44.1102946 C6.39042,44.0108679 5.99636724,43.9290787 5.54722443,43.9089132 C5.43505491,43.9038767 5.3196094,43.9026816 5.20148173,43.9060293 C5.08335373,43.9093772 4.96253383,43.9172579 4.83972454,43.930343 C4.59413578,43.956523 4.34049016,44.00357 4.08525081,44.0768265 C3.06325524,44.3698727 2.02069232,45.0823615 1.40839751,46.5529448 C1.10103762,47.2882759 0.898275563,48.2132168 0.844670266,49.3704795 C0.831258807,49.6598024 0.827161293,49.9636424 0.83304032,50.2826712 C0.838929401,50.6016997 0.854805401,50.9359167 0.881320861,51.2859941 C0.93432259,51.986119 1.03003232,52.749694 1.17263675,53.5817459 C1.16951902,53.5809262 1.03963297,56.0961219 1.94082843,58.9862514 C2.7880427,61.8119235 4.82247308,65.2830102 8.57873837,66.274907 C8.146728,59.0976374 8.13330713,51.7858337 7.68162032,44.5770511 L7.68162032,44.5770511 L7.68162032,44.5770511 Z" id="Shape-11-copy-2" fill="#FDDEC1"></path>
                    <path d="M8.10993891,44.8663938 C8.10993891,44.8663938 1.56624421,42.8433447 1.79653167,49.5556356 C1.79653167,49.5556356 2.77077146,59.2886695 3.19383405,60.1856923 C3.19383405,60.1856923 5.76372421,65.8526003 10.0049617,66.1037448 C14.1501529,66.3492007 10.0049617,66.1037448 10.0049617,66.1037448 L10.0564391,67.9303205 C10.0564391,67.9303205 2.60195805,66.9766714 1.16217502,58.405255 L0.0257828067,50.6185376 C0.0257828067,50.6185376 -0.856577518,40.3135828 7.70236573,42.9336957 C16.0405138,45.486221 7.70236573,42.9336957 7.70236573,42.9336957 L8.10993891,44.8663938" id="Shape-3-Copy" fill="#3B434F"></path>
                    <path d="M5.95008616,58.3888814 C5.95008616,58.3888814 5.58387502,58.6650208 5.2692801,58.6650208 C4.95468519,58.6650208 4.59293805,58.3888814 4.59293805,58.3888814 L3.9176254,51.5988308 C3.9176254,51.5988308 4.84938454,48.2549111 8.80318605,50.022076 L8.89664886,51.9635928 C8.89664886,51.9635928 5.42779005,50.7361054 5.49951794,52.2646084 C5.56856367,53.7358732 5.95008616,58.3888814 5.95008616,58.3888814 L5.95008616,58.3888814 Z" id="Shape-4-Copy" fill="#3B434F"></path>
                    <path d="M71.2511974,44.5929014 C71.2550374,44.5931186 71.5924563,44.3256203 72.2296041,44.1264607 C72.5480591,44.0271033 72.943834,43.9453736 73.3949465,43.9252175 C73.5076009,43.920191 73.6235513,43.9189959 73.7422038,43.9223439 C73.8608462,43.9256815 73.9821905,43.9335622 74.1055443,43.9466376 C74.352202,43.9727978 74.6069663,44.0198151 74.8633239,44.0930224 C75.8897932,44.3858709 76.936919,45.0978759 77.551896,46.5674618 C77.8606018,47.3022891 78.0642548,48.226598 78.1180878,49.3830806 C78.1315586,49.6722061 78.1356759,49.9758389 78.1297768,50.2946503 C78.1238582,50.6134613 78.1079131,50.9474515 78.0812786,51.2972916 C78.0280495,51.9969425 77.9319139,52.760004 77.7886862,53.5914831 C77.7918237,53.5906634 77.9222737,56.1041605 77.017129,58.9923251 C76.1662132,61.8160811 74.1228652,65.2848075 70.3501502,66.2760329 C70.7840507,59.1036318 70.7975312,51.7967953 71.2511974,44.5929014 L71.2511974,44.5929014 L71.2511974,44.5929014 Z" id="Shape-11-copy_1-Copy" fill="#FDDEC1"></path>
                    <path d="M70.819583,44.8820564 C70.819583,44.8820564 77.3919409,42.86038 77.1606441,49.5681082 C77.1606441,49.5681082 76.1821385,59.2945357 75.7572149,60.1909463 C75.7572149,60.1909463 73.1760713,65.8540125 68.9162659,66.104989 C64.752913,66.3502773 68.9162659,66.104989 68.9162659,66.104989 L68.8645609,67.9303205 C68.8645609,67.9303205 76.3516842,66.9773231 77.7977721,58.4117234 L78.9391427,50.6302892 C78.9391427,50.6302892 79.8253732,40.3323264 71.2289374,42.9506618 C62.8542775,45.5014587 71.2289374,42.9506618 71.2289374,42.9506618 L70.819583,44.8820564" id="Shape-3_1-Copy" fill="#3B434F"></path>
                    <path d="M72.9888979,58.3953599 C72.9888979,58.3953599 73.3567122,58.6713113 73.6726829,58.6713113 C73.9886536,58.6713113 74.3519844,58.3953599 74.3519844,58.3953599 L75.0302565,51.6099209 C75.0302565,51.6099209 74.0944193,48.268273 70.1232973,50.0342327 L70.0294284,51.9744361 C70.0294284,51.9744361 73.5134802,50.7477784 73.4414355,52.2752445 C73.372093,53.7455116 72.9888979,58.3953599 72.9888979,58.3953599 L72.9888979,58.3953599 Z" id="Shape-4_1-Copy" fill="#3B434F"></path>
                    <path d="M42.0879298,57.8512288 L42.5722489,57.8512288 C43.5735882,59.2080753 43.9809733,61.2931824 44.5095441,63.0978739 C44.6733493,63.6571541 44.5144336,64.6354034 44.3711659,65.0308487 C43.8464848,66.4791329 42.198961,66.4531406 40.8425257,67.101893 C40.4782349,67.2761365 40.2072584,67.5768855 39.7354998,67.6541811 C39.4279417,67.3838685 39.0565939,67.3307779 38.9052204,66.8947935 C38.531497,66.3813258 39.0131633,66.0606777 39.3895492,65.8592665 C40.0726511,65.493734 42.1813829,65.1334651 42.4338704,64.4785702 C42.7462683,64.1239896 42.5385473,63.0579079 42.4338704,62.6836653 C42.1657842,61.7251078 42.0371056,60.9248552 41.672795,60.0603426 C41.4307991,59.4861107 41.0059249,58.8806526 41.2576605,58.1963977 C41.466262,58.1070243 41.9171072,58.0054052 42.0879298,57.8512288 L42.0879298,57.8512288 Z" id="new_vector_shape_done-copy" fill="#3B434F"></path>
                    <path d="M26.9354971,48.1034999 C27.6233105,48.1034999 28.1809012,48.9949731 28.1809012,50.0946541 C28.1809012,51.1943346 27.6233105,52.0858079 26.9354971,52.0858079 L21.9538703,52.0858079 C21.2660569,52.0858079 20.7084662,51.1943346 20.7084662,50.0946541 C20.7084662,48.9949731 21.2660569,48.1034999 21.9538703,48.1034999 L26.9354971,48.1034999 Z M57.3787411,47.7721367 C58.0665545,47.7721367 58.6241452,48.6635972 58.6241452,49.7632924 C58.6241452,50.8629742 58.0665545,51.7544347 57.3787411,51.7544347 L52.3971143,51.7544347 C51.7093009,51.7544347 51.1517098,50.8629742 51.1517098,49.7632924 C51.1517098,48.6635972 51.7093009,47.7721367 52.3971143,47.7721367 L57.3787411,47.7721367 Z" id="Rounded-Rectangle-9-Copy-2" fill="#3B434F"></path>
                    <path d="M9.37126832,53.5710606 C9.37126832,53.5710606 13.2208777,36.7451332 16.5707575,32.1426381 C19.9206373,27.5401433 22.819474,26.4393095 24.3240568,26.2985239 C25.8286395,26.1577485 37.6770775,29.6524176 53.9527187,25.6491691 C53.9527187,25.6491691 60.3701695,25.3936204 63.0905329,31.8179709 C63.0905329,31.8179709 68.826,42.0559497 69.7362123,52.2723706 L70.8438224,52.2723706 C70.8438224,52.2723706 73.1910165,34.3633559 72.2283568,23.7011343 C71.2656675,13.0389226 57.2755586,7.7921587 57.2755586,7.7921587 L60.3214933,5.51943657 C60.3214933,5.51943657 53.2101619,3.3259954 50.3529743,4.54543421 L52.568194,-8.06664819e-14 C52.568194,-8.06664819e-14 38.2168129,0.0285399878 30.1390213,6.493459 L30.4159262,3.24672448 C30.4159262,3.24672448 1.94355048,7.60319094 7.9867534,52.9217158 L9.37126832,53.5710606 L9.37126832,53.5710606 Z" id="Shape-7-Copy" fill="#3B434F"></path>
                </g>
            </g>
        </g>
    </g>
</svg>